<?xml version="1.0" encoding="utf-8"?><svg viewBox="0 0 154 38" xmlns="http://www.w3.org/2000/svg" xmlns:xlink="http://www.w3.org/1999/xlink"><style>:root>svg{display:none}:root>svg:target{display:block}</style><svg viewBox="0 0 154 38" id="partner-1" xmlns="http://www.w3.org/2000/svg"><g clip-path="url(#aa)"><path d="M106.531 27.372c1.556.02 3.1-.28 4.534-.882a27.139 27.139 0 004.053-2.243l6.345 8.31a13.832 13.832 0 01-3.376 2.305 20.806 20.806 0 01-3.942 1.41 29.45 29.45 0 01-4.361.747 51.495 51.495 0 01-4.62.209 47.97 47.97 0 01-4.805-.245 46.575 46.575 0 01-4.472-.65 35.856 35.856 0 01-3.881-.968 20.38 20.38 0 01-3.031-1.226l11.445-22.923h-8.537V.588h26.204l-12.505 26.784h.949zm34.792-12.49a6.025 6.025 0 00-1.479-2.085 7.016 7.016 0 00-2.23-1.41 6.991 6.991 0 00-5.383 0 6.784 6.784 0 00-3.696 3.494 6.01 6.01 0 000 5.1 6.785 6.785 0 003.696 3.493 6.986 6.986 0 005.383 0 7.018 7.018 0 002.23-1.41 6.024 6.024 0 001.479-2.083 6.277 6.277 0 000-5.1zm10.472 9.475a17.939 17.939 0 01-3.943 5.577 18.231 18.231 0 01-5.876 3.751 19.807 19.807 0 01-14.378 0 18.023 18.023 0 01-9.782-9.328 16.774 16.774 0 010-13.656 17.799 17.799 0 013.943-5.565 19.213 19.213 0 015.839-3.75 19.348 19.348 0 0114.378 0 19.093 19.093 0 015.864 3.75 17.586 17.586 0 013.942 5.565 16.758 16.758 0 010 13.656h.013zm-70.816-13.14v23.29H69.83v-23.29h-6.874V.587h24.837v10.628H80.98zm-30.886.17a2.575 2.575 0 00-1.897-.771H46.47v5.197h1.725a2.59 2.59 0 001.897-.772 2.55 2.55 0 00.787-1.839 2.54 2.54 0 00-.787-1.839v.025zm7.712 11.205l7.762 11.853H53.592c-1.733-2.451-3.08-4.29-4.041-5.516a26.996 26.996 0 00-2.07-2.452c-.43-.416-.69-.551-.764-.416a.831.831 0 00-.123.441v7.943H35.506V.588h13.577c1.64.002 3.26.367 4.743 1.067 1.487.67 2.837 1.61 3.98 2.77a12.672 12.672 0 012.87 4.156 12.2 12.2 0 01.924 4.756 12.96 12.96 0 01-.973 4.903 13.476 13.476 0 01-2.822 4.352zm-40.73-8.85l-1.897 7.256h3.696l-1.798-7.257zm5.754 20.703l-1.072-3.886H12.32l-1.06 3.886H0L10.965.588h12.16l10.964 33.857H22.83z"/></g><defs><clipPath id="aa"><path d="M0 0h154v38H0z"/></clipPath></defs></svg><svg viewBox="0 0 140 38" id="partner-2" xmlns="http://www.w3.org/2000/svg"><g clip-path="url(#ba)"><path d="M22.394 31.09a1.72 1.72 0 01-.59.116l-2.233.069h-1.92a19.552 19.552 0 01-5.554 4.283 10.28 10.28 0 01-4.814 1.06 9.877 9.877 0 01-3.008-.553 7.17 7.17 0 01-2.395-1.382 5.61 5.61 0 01-1.492-2.015 4.884 4.884 0 01-.348-2.533 6.533 6.533 0 011.308-3.547 5.632 5.632 0 012.314-1.704 6.135 6.135 0 012.58-.369c.688.04 1.368.163 2.025.369.411.171.756.47.983.852.184.3.261.653.22 1.002a1.149 1.149 0 01-.486.748 1.08 1.08 0 01-1.03 0 2.697 2.697 0 00-1.92-.138 3.044 3.044 0 00-1.389.956c-.355.457-.59.995-.682 1.566a3.187 3.187 0 00.127 1.716 2.8 2.8 0 001.157 1.381c.7.409 1.505.6 2.314.553a7.956 7.956 0 004.894-2.119c-.67 0-1.087-.207-1.25-.506a1.01 1.01 0 010-1.002 3.21 3.21 0 01.961-1.037c.43-.31.94-.493 1.47-.53h2.07a61.582 61.582 0 004.837-6.194 354.567 354.567 0 004.917-7.359c1.632-2.498 3.124-4.963 4.628-7.38A88.731 88.731 0 0134.531.897a2.177 2.177 0 011.342-.84 2.231 2.231 0 011.389.126 1.549 1.549 0 01.821.956 1.777 1.777 0 01-.312 1.508c-1.215 1.877-2.407 3.938-3.598 6.195-1.192 2.257-2.314 4.537-3.298 6.829-.983 2.291-1.944 4.514-2.684 6.644a46.348 46.348 0 00-1.724 5.665 14.103 14.103 0 00-.463 3.973c.081 1.013.451 1.509 1.157 1.509.316-.012.63-.074.926-.185a8.973 8.973 0 001.157-.495c.402-.223.788-.473 1.157-.748.38-.269.736-.57 1.064-.898l1.493-1.509c.434-.465.844-.954 1.226-1.462a1.04 1.04 0 01.868-.496c.36-.027.72.045 1.041.208.302.137.547.372.694.668a.803.803 0 01-.161.898L35.19 31.16a32.06 32.06 0 01-2.314 2.464 24.9 24.9 0 01-1.643 1.428c-.462.37-.962.69-1.493.955a6.241 6.241 0 01-1.539.53 9.582 9.582 0 01-1.816.161 3.485 3.485 0 01-3.194-1.543 7.043 7.043 0 01-.798-4.065zm.37-2.913a34.918 34.918 0 012.314-6.77 86.407 86.407 0 01-2.476 3.707 76.535 76.535 0 01-2.314 3.12c.498 0 .96-.057 1.389-.057h1.087zm14.74-7.14a1.153 1.153 0 01.903-.61 3.15 3.15 0 011.354 0c.412.087.79.291 1.088.588a.885.885 0 01.162 1.06l-.313.632.209-.16a9.483 9.483 0 012.557-1.694 3.638 3.638 0 011.828-.322c.49.061.943.289 1.284.645.36.352.654.766.868 1.22a3.072 3.072 0 010 2.361 19.64 19.64 0 01-1.354 2.936 28.128 28.128 0 01-1.227 2.2 87.85 87.85 0 00-1.272 2.142 1.562 1.562 0 00-.29.771c0 .127.105.161.267.127a2.52 2.52 0 00.555-.23c.201-.123.394-.257.579-.404a21.046 21.046 0 002.314-2.06 23.05 23.05 0 001.84-2.073 1.073 1.073 0 01.902-.53 1.84 1.84 0 011.006.207 1.5 1.5 0 01.671.668.859.859 0 01-.104.898c-.185.207-.416.518-.717.921-.3.404-.648.841-1.041 1.302-.394.46-.822.932-1.308 1.427-.486.496-.96.956-1.458 1.382a9.743 9.743 0 01-2.58 1.74 4.808 4.808 0 01-2.025.448 2.32 2.32 0 01-1.457-.495 3.331 3.331 0 01-.914-1.151 3.119 3.119 0 01-.128-2.303 16.696 16.696 0 011.308-2.994c.139-.277.312-.61.532-1.002.22-.392.428-.783.66-1.152.23-.368.439-.794.636-1.151.165-.319.35-.626.555-.922.22-.391.3-.644.266-.771-.034-.127-.15-.161-.335-.127a2.91 2.91 0 00-.671.23 9.909 9.909 0 00-.695.404 30.05 30.05 0 00-1.747 1.29c-.58.455-1.132.943-1.654 1.462-.359.84-.718 1.693-1.088 2.545l-1.041 2.383c-.324.737-.59 1.37-.822 1.9-.231.53-.405.898-.509 1.152a1.715 1.715 0 01-1.157.944 2.511 2.511 0 01-1.516 0 1.873 1.873 0 01-1.087-.898 1.744 1.744 0 01.104-1.67c.312-.702.752-1.635 1.296-2.775s1.157-2.303 1.712-3.604l1.701-3.685c.486-1.347.96-2.36 1.354-3.213v.012zm20.26-1.323l-4.42 7.715a40.475 40.475 0 01-1.157 2.015 15.199 15.199 0 00-.914 1.75 8.707 8.707 0 00-.474 1.347c-.093.369-.046.622.139.76a.719.719 0 00.764.139c.38-.109.74-.28 1.064-.507.37-.242.752-.53 1.157-.84.405-.312.74-.634 1.064-.957l1.493-1.508c.434-.465.844-.954 1.227-1.462a1.04 1.04 0 01.867-.496c.36-.027.72.045 1.042.208.301.137.546.372.694.668a.803.803 0 01-.162.898c-.359.46-.833 1.036-1.435 1.75-.602.714-1.365 1.509-2.314 2.43a24.926 24.926 0 01-1.643 1.428c-.462.37-.962.69-1.492.955a6.24 6.24 0 01-1.54.53 9.171 9.171 0 01-1.758.161c-1.816 0-2.87-.737-3.17-2.2-.301-1.462.277-3.454 1.735-5.849.174-.322.44-.794.799-1.428.358-.633.763-1.358 1.25-2.176l1.515-2.59c.532-.922 1.041-1.82 1.539-2.707-.3.037-.601.056-.903.058h-.96c-.74 0-1.227-.15-1.435-.45a.999.999 0 01-.058-1.036c.224-.43.554-.794.96-1.06a3.04 3.04 0 011.54-.529h2.695l1.157-1.912a2.139 2.139 0 011.227-1.001 2.325 2.325 0 011.388 0c.389.113.72.368.926.714a1.148 1.148 0 01-.07 1.151l-.532.898h1.481a7.6 7.6 0 001.157 0c.533 0 .845.162.96.461a1.262 1.262 0 01-.115 1.002c-.202.409-.49.77-.845 1.06-.35.319-.808.5-1.284.506l-3.159.104zm16.824 8.463a1.157 1.157 0 01.925-.495c.36-.025.72.047 1.041.207.297.144.54.378.695.668a.813.813 0 01-.162.898c-.186.208-.417.519-.718.922-.3.402-.66.84-1.064 1.3l-1.25 1.417c-.452.487-.93.948-1.434 1.382a9.864 9.864 0 01-2.557 1.739 4.344 4.344 0 01-1.967.426 2.426 2.426 0 01-1.435-.53 4.822 4.822 0 01-1.007-1.151l-1.84 1.151a5.89 5.89 0 01-2.95.587 4.47 4.47 0 01-2.395-.633 3.735 3.735 0 01-1.492-1.808 5.733 5.733 0 01-.324-2.775 9.39 9.39 0 011.203-3.524 13.64 13.64 0 012.418-3.304 17.224 17.224 0 012.846-2.304 12.014 12.014 0 012.8-1.324 7.902 7.902 0 012.314-.426c.394-.004.785.058 1.157.184.323.12.633.27.926.45.291.177.56.39.798.633a1.965 1.965 0 011.065-.921 2.994 2.994 0 011.47-.22 1.54 1.54 0 011.017.508c.22.287.197.667-.08 1.151l-1.065 2.096c-.428.829-.868 1.681-1.33 2.545l-1.308 2.43c-.3.56-.628 1.106-.984 1.634a1.31 1.31 0 00-.242.818c0 .161.208.23.45.219.305-.037.597-.14.857-.3.355-.197.678-.445.96-.737.602-.633 1.088-1.151 1.458-1.508.441-.437.844-.911 1.204-1.416v.011zm-7.822 1.474a10.86 10.86 0 001.296-2.015c.306-.61.557-1.246.752-1.9.152-.504.215-1.03.185-1.555a1.272 1.272 0 00-.486-.978 1.357 1.357 0 00-1.088-.185 4.394 4.394 0 00-1.434.61 10.41 10.41 0 00-1.597 1.267c-.58.566-1.121 1.17-1.62 1.808a14.663 14.663 0 00-1.33 2.084 9.376 9.376 0 00-.776 1.877c-.15.5-.204 1.023-.161 1.543a1.376 1.376 0 00.509.98 1.253 1.253 0 001.04.207 4.296 4.296 0 001.459-.576 9.136 9.136 0 001.62-1.278 14.616 14.616 0 001.631-1.889zm7.822-1.485a28.88 28.88 0 002.314-3.04c.81-1.221 1.561-2.303 2.233-3.363a5.657 5.657 0 01-.984-1.934 8.254 8.254 0 01-.37-2.303 6.88 6.88 0 01.29-2.2 3.363 3.363 0 011.156-1.658 3.863 3.863 0 012.233-.933 2.81 2.81 0 011.805.553 3.268 3.268 0 011.03 1.681 4.33 4.33 0 01.139 2.188 6.065 6.065 0 01-.532 1.59 47.09 47.09 0 01-1.007 1.968c.473.104.962.104 1.435 0 .475-.114.973-.09 1.434.07.359.132.672.364.903.667.211.26.326.586.324.921a1.15 1.15 0 01-.324.83c-.139.138-.428.46-.845.944-.416.483-.914 1.094-1.47 1.773-.555.68-1.156 1.428-1.677 2.2a25.832 25.832 0 00-1.458 2.222c-.363.598-.665 1.23-.902 1.888-.197.542-.174.91.07 1.083a1.486 1.486 0 001.654.08c.8-.33 1.551-.768 2.233-1.3a21.06 21.06 0 002.314-1.958A21.308 21.308 0 0088.39 28.2a1.345 1.345 0 01.937-.449c.346-.018.69.045 1.007.184.288.136.524.363.67.645a.814.814 0 01-.161.898 23.733 23.733 0 01-2.314 2.614 19.293 19.293 0 01-3.24 2.706 12.75 12.75 0 01-3.645 1.716 4.485 4.485 0 01-3.47-.31 2.61 2.61 0 01-1.07-.878 2.595 2.595 0 01-.47-1.3 6.536 6.536 0 01.533-3.2 15.323 15.323 0 011.967-3.455 15.943 15.943 0 012.765-2.97c.182-.134.335-.303.451-.496 0-.092-.347-.276-1.088-.564a94.496 94.496 0 01-2.58 3.811c-.833 1.163-1.4 1.946-1.677 2.303a1.304 1.304 0 01-.984.553 1.568 1.568 0 01-.983-.242 1.477 1.477 0 01-.614-.714.85.85 0 01.163-.886zm6.814-12.76a.777.777 0 00-.67.346 2.1 2.1 0 00-.313.898c-.058.382-.058.77 0 1.152.069.429.214.842.428 1.22.208-.425.405-.852.579-1.278.163-.37.29-.756.381-1.151a1.85 1.85 0 000-.875.437.437 0 00-.405-.311zM97.3 19.703l-4.42 7.727a73.636 73.636 0 01-1.157 2.015c-.335.565-.636 1.15-.902 1.75-.2.434-.36.885-.475 1.347-.092.369 0 .622.127.76a.744.744 0 00.776.139c.38-.109.74-.28 1.064-.507.37-.242.752-.53 1.157-.84.405-.312.74-.634 1.065-.957a49.647 49.647 0 001.48-1.508c.423-.464.817-.952 1.18-1.462a1.071 1.071 0 01.926-.53c.36-.025.72.047 1.042.207.296.144.54.378.694.668a.813.813 0 01-.162.898 61.4 61.4 0 01-1.435 1.75c-.601.715-1.365 1.509-2.314 2.43a22.194 22.194 0 01-1.654 1.428c-.46.368-.956.688-1.481.956a6.328 6.328 0 01-1.55.53c-.58.11-1.17.164-1.76.16-1.804 0-2.857-.736-3.158-2.199-.301-1.462.278-3.454 1.724-5.85.185-.322.451-.794.798-1.427l1.25-2.177c.486-.806.983-1.67 1.516-2.59.532-.922 1.052-1.82 1.55-2.707-.3.038-.6.057-.903.058h-.96c-.752 0-1.226-.15-1.435-.449a.975.975 0 010-1.036c.22-.432.552-.798.96-1.06a3.04 3.04 0 011.54-.53h2.694l1.157-1.911a2.2 2.2 0 011.169-.967 2.325 2.325 0 011.389 0c.384.12.713.373.925.714a1.147 1.147 0 01-.08 1.151l-.533.898h1.492a7.6 7.6 0 001.157 0c.533 0 .845.162.949.461a1.252 1.252 0 01-.104 1.002 3.334 3.334 0 01-.845 1.06 1.948 1.948 0 01-1.319.471l-3.135.127zm8.84 8.464a1.034 1.034 0 01.867-.496c.36-.027.72.045 1.042.208.301.137.546.372.694.668a.805.805 0 01-.162.898c-.359.46-.822 1.036-1.412 1.75a29.508 29.508 0 01-2.314 2.43 24.721 24.721 0 01-1.643 1.428c-.462.37-.962.69-1.492.955a6.251 6.251 0 01-1.539.53c-.58.11-1.169.164-1.759.161-1.816 0-2.87-.737-3.17-2.2-.3-1.462.278-3.454 1.736-5.849.312-.53.647-1.151 1.006-1.773.359-.622.718-1.301 1.088-1.935l1.064-1.796c.336-.564.637-1.048.88-1.44a2.17 2.17 0 011.226-.978 2.25 2.25 0 011.354 0c.385.125.715.377.937.714a1.074 1.074 0 01-.116 1.152c-.382.679-.833 1.462-1.33 2.36l-1.273 2.476a40.953 40.953 0 01-1.157 2.015 15.075 15.075 0 00-.914 1.75 8.697 8.697 0 00-.475 1.347c-.092.369-.046.622.14.76a.719.719 0 00.763.139c.41-.107.801-.278 1.157-.507.4-.26.786-.541 1.157-.84.382-.323.74-.634 1.064-.957l1.435-1.508a18.33 18.33 0 001.146-1.462zm2.175-11.803a4.504 4.504 0 01-.706.91 9.38 9.38 0 01-.683.633 4.642 4.642 0 01-1.446.575 2.954 2.954 0 01-1.25.058.87.87 0 01-.682-.53c-.127-.276 0-.668.289-1.151.144-.28.302-.554.474-.818.22-.334.405-.645.591-.933a1.713 1.713 0 011.157-.771 2.94 2.94 0 011.388.08c.397.128.734.393.949.749a1.144 1.144 0 01-.081 1.198zm-1.747 10.8a14.7 14.7 0 012.314-3.097 14.308 14.308 0 012.869-2.188 8.31 8.31 0 012.985-1.06 5.813 5.813 0 012.789.266 1.864 1.864 0 011.307 1.428 4.022 4.022 0 01-.301 2.038 7.59 7.59 0 01-1.157 2.073 10.918 10.918 0 01-1.446 1.508 1.66 1.66 0 01-1.157.426 1.89 1.89 0 01-1.041-.403 1.804 1.804 0 01-.579-.817.685.685 0 01.208-.795l.903-.898c.328-.324.633-.67.914-1.037.199-.246.342-.533.416-.84 0-.23-.115-.346-.474-.346a2.514 2.514 0 00-1.226.392 7.247 7.247 0 00-1.435 1.151 14.55 14.55 0 00-1.493 1.67c-.513.65-.973 1.34-1.377 2.061a4.256 4.256 0 00-.671 2.545 2.451 2.451 0 00.938 1.716 3.089 3.089 0 002.036.438 6.737 6.737 0 002.974-1.083c.459-.276.903-.575 1.33-.898a13.77 13.77 0 001.331-1.152c.428-.426.821-.771 1.157-1.151.321-.327.623-.673.902-1.037a1.063 1.063 0 01.857-.495c.337-.022.676.041.983.185.294.133.532.365.671.656a.89.89 0 01-.116.933c-.26.376-.542.738-.844 1.082-.359.403-.764.84-1.227 1.301-.463.46-.948.91-1.458 1.37a20.11 20.11 0 01-1.573 1.279 9.564 9.564 0 01-3.17 1.693c-.991.298-2.02.45-3.055.449a6.972 6.972 0 01-2.557-.484 3.76 3.76 0 01-1.643-1.152 4.343 4.343 0 01-.879-1.83 6.718 6.718 0 01-.151-1.97c.047-.698.172-1.39.37-2.06.184-.65.445-1.277.776-1.866zm29.897 1.003a1.154 1.154 0 01.926-.496c.36-.026.72.046 1.041.208.301.137.546.372.694.668a.811.811 0 01-.162.898c-.173.207-.416.518-.717.921s-.659.84-1.064 1.301c-.405.46-.845.933-1.308 1.428-.452.487-.931.948-1.434 1.382a9.893 9.893 0 01-2.534 1.739 4.348 4.348 0 01-1.967.426 2.427 2.427 0 01-1.435-.53 4.823 4.823 0 01-1.007-1.151l-1.839 1.151a5.893 5.893 0 01-2.951.587 4.47 4.47 0 01-2.395-.633 3.783 3.783 0 01-1.492-1.808 5.74 5.74 0 01-.313-2.775 9.18 9.18 0 011.157-3.524 13.685 13.685 0 012.43-3.304 16.31 16.31 0 012.846-2.304 11.731 11.731 0 012.789-1.324 7.905 7.905 0 012.314-.426c.393-.006.784.057 1.157.184.325.122.639.272.937.45.332.18.642.396.926.644a1.92 1.92 0 011.064-.92 2.928 2.928 0 011.4-.22 1.52 1.52 0 011.018.507c.232.288.197.668-.081 1.151-.277.484-.636 1.267-1.064 2.096-.428.83-.868 1.681-1.331 2.545-.463.864-.891 1.67-1.307 2.43a16.186 16.186 0 01-.984 1.67c-.208.391-.289.656-.231.817.058.161.197.23.451.219.3-.037.588-.14.845-.3a4.12 4.12 0 00.96-.736c.602-.634 1.088-1.152 1.458-1.509.447-.449.849-.939 1.203-1.462zm-7.821 1.485a11.257 11.257 0 002.106-3.938c.15-.5.212-1.022.185-1.543a1.317 1.317 0 00-.475-.979 1.375 1.375 0 00-1.157-.184c-.51.118-.996.325-1.434.61a10.38 10.38 0 00-1.597 1.267 19.538 19.538 0 00-1.62 1.808 15.924 15.924 0 00-1.331 2.095 9.38 9.38 0 00-.775 1.877 4.126 4.126 0 00-.15 1.543 1.377 1.377 0 00.497.979 1.28 1.28 0 001.042.208 4.306 4.306 0 001.458-.576 9.64 9.64 0 001.631-1.278 15.485 15.485 0 001.62-1.889z"/></g><defs><clipPath id="ba"><path d="M0 0h140v38H0z"/></clipPath></defs></svg><svg viewBox="0 0 109 32" id="partner-3" xmlns="http://www.w3.org/2000/svg"><g clip-path="url(#ca)"><path d="M4.888 31.04c-1.81 0-3.066-.368-3.786-1.115a5.203 5.203 0 01-1.08-3.675V3.821A3.653 3.653 0 011.072.98a3.647 3.647 0 012.6-.97h8.203l1.08 5.818H6.98c-.37 0-.555.194-.555.602v18.23c0 .407.185.601.555.601h5.976l-1.12 5.818-6.948-.038zm16.204-3.878l-.565 3.879H14.25L19.875.01h6.657l5.606 31.03H25.89l-.565-3.88h-4.233zm.68-4.926h2.92l-1.469-10.968-1.45 10.968zM46.114.01a3.545 3.545 0 012.774 1.028c.642.764.972 1.74.924 2.735v14.855a6.752 6.752 0 01-.194 1.649c-.126.488-.37.937-.71 1.309a3.477 3.477 0 01-1.373.873c-.692.231-1.42.34-2.15.32H40.06v8.262h-6.19V.01h12.243zM40.06 5.45v12.19h3.094c.253 0 .419-.05.487-.146a.812.812 0 00.107-.495V6.042c0-.398-.185-.592-.555-.592H40.06zM64.672.01L66.2 5.828h-4.146v25.213H55.7V5.828h-4.165L53.159.01h11.513zm6.667 27.152l-.555 3.879h-6.277L70.093.01h6.667l5.625 31.03h-6.239l-.554-3.88h-4.253zm.7-4.849h2.92l-1.47-11.045-1.45 11.045zM84.127.01h6.228v31.03h-6.228V.01zm8.817 0h5.927l3.182 12.451V.011h6.404v31.03h-6.404l-3.348-12.965V31.04h-5.76V.01z"/></g><defs><clipPath id="ca"><path d="M0 0h109v32H0z"/></clipPath></defs></svg><svg viewBox="0 0 142 38" id="partner-4" xmlns="http://www.w3.org/2000/svg"><g clip-path="url(#da)"><path d="M37.852 4.83c.335.369.43.654.299.868-.132.213-.418.19-.848 0a3.233 3.233 0 00-1.336-.368 1.64 1.64 0 01-1.11-.404 8.62 8.62 0 00-3.043-1.948 12.569 12.569 0 00-3.687-.807 15.658 15.658 0 00-3.794.178c-1.165.186-2.3.521-3.377.997a18.306 18.306 0 00-3.58 2.197 37.449 37.449 0 00-3.962 3.408 44.59 44.59 0 00-3.866 4.228A41.07 41.07 0 006.254 18a28.971 28.971 0 00-2.386 4.988 15.857 15.857 0 00-.93 4.869c-.026.401.088.799.321 1.128.22.275.507.488.836.617a3.9 3.9 0 001.121.226c.362.018.724.018 1.086 0a15.03 15.03 0 003.58-.82 28.544 28.544 0 003.52-1.508 38.409 38.409 0 003.294-1.888 51.68 51.68 0 002.863-1.912c.86-.617 1.623-1.187 2.28-1.65.656-.463 1.133-.832 1.467-1.045a5.4 5.4 0 011.647-.808 2.91 2.91 0 001.193-.427l1.528-.974c.358-.202.573-.261.632-.178.06.083 0 .273-.31.546a55.74 55.74 0 01-4.01 3.86c-1.396 1.21-2.816 2.374-4.26 3.562a34.037 34.037 0 01-2.732 1.924 35.38 35.38 0 01-3.365 1.923 30.744 30.744 0 01-3.58 1.497 10.51 10.51 0 01-3.377.605 7.513 7.513 0 01-3.09-.546 5.25 5.25 0 01-2.065-1.556A6.522 6.522 0 01.324 28.19a9.256 9.256 0 01-.322-2.6 15.927 15.927 0 011.026-5.13 29.193 29.193 0 012.553-5.332 38.414 38.414 0 013.7-5.095 41.363 41.363 0 014.403-4.406 30.755 30.755 0 014.558-3.241A15.707 15.707 0 0120.586.532c1.473-.305 2.97-.48 4.475-.522a18.69 18.69 0 018.997 1.983 13.86 13.86 0 013.794 2.838zM24.321 22.704a6.72 6.72 0 01-.752.582c-.107 0-.155 0-.143-.06.043-.162.108-.317.19-.463.094-.165.178-.336.251-.51a8.293 8.293 0 00.49-1.699c.04-.438.214-.852.5-1.187l.872-1.021c.393-.463.859-.974 1.408-1.52a23.314 23.314 0 011.837-1.627c.658-.52 1.365-.973 2.113-1.354a1.198 1.198 0 01.954-.071c.344.1.668.26.955.475.26.193.476.44.632.724a.615.615 0 010 .677c-.403.75-.849 1.475-1.336 2.173a48.792 48.792 0 00-1.778 2.648 37.757 37.757 0 00-1.611 2.85c-.438.848-.77 1.745-.99 2.672a13.122 13.122 0 002.314-1.674c.812-.725 1.611-1.52 2.387-2.375s1.563-1.734 2.387-2.625l2.112-2.47a.68.68 0 01.787-.26c.33.092.63.268.871.51.254.263.446.58.561.926a1.184 1.184 0 010 .95 21.171 21.171 0 00-1.682 4.251 27.16 27.16 0 002.923-1.971 85.988 85.988 0 012.231-1.674 2.27 2.27 0 01.538-.273l.596-.179a5.79 5.79 0 00.728-.273 11.9 11.9 0 001.002-.498c.514-.274.788-.357.812-.274.024.084-.131.321-.501.677-.669.665-1.373 1.378-2.136 2.126a80.316 80.316 0 01-2.315 2.197 33.664 33.664 0 01-2.387 1.995 13.131 13.131 0 01-2.148 1.46.853.853 0 01-.728.072 2.74 2.74 0 01-.787-.357 2.383 2.383 0 01-.645-.593 1.102 1.102 0 01-.25-.654 6.308 6.308 0 01.024-1.448 51.95 51.95 0 01-2.47 2.375A22.337 22.337 0 0129.249 28c-.334.16-.706.221-1.074.178a5.996 5.996 0 01-1.408-.273 3.923 3.923 0 01-1.193-.653 1.415 1.415 0 01-.514-1.116 4.111 4.111 0 01.203-1.532c.18-.577.391-1.144.633-1.698.262-.594.549-1.188.87-1.746l.884-1.627c-.573.546-1.134 1.08-1.683 1.627a37.86 37.86 0 01-1.646 1.544zm23.078-4.572c-.752.879-1.456 1.639-2.053 2.304-.38.484-.895.847-1.48 1.045-.25.015-.5.015-.751 0-.28.015-.55.101-.788.249a4.516 4.516 0 00-1.002.653 9.22 9.22 0 01-.907.677c-.215.142-.25.083-.12-.154.132-.238.621-.88 1.433-1.9a807.295 807.295 0 003.794-4.75 51.692 51.692 0 003.162-4.477.585.585 0 01.633-.202c.28.063.55.167.8.309.295.139.56.337.775.582.215.249.31.45.274.629a26.16 26.16 0 00-.727 2.85 7.022 7.022 0 013.09-1.188 3.115 3.115 0 011.707.321c.55.262 1.057.606 1.503 1.021a5.4 5.4 0 011.038 1.283c.224.334.345.726.346 1.128a4.618 4.618 0 01-1.002 2.648 8.88 8.88 0 01-2.184 1.971c.966-.31 1.9-.707 2.792-1.187.752-.428 1.385-.808 1.91-1.188.525-.38.978-.653 1.348-.902a2.56 2.56 0 011.086-.475c.15-.015.303-.015.453 0a.947.947 0 00.382-.095 2.13 2.13 0 00.478-.309l.775-.641c.215-.202.346-.273.406-.202.06.071.06.142 0 .202a18.088 18.088 0 01-2.387 3.028 21.651 21.651 0 01-3.114 2.695 20.856 20.856 0 01-3.52 2.02c-1.162.517-2.398.85-3.664.985a2.256 2.256 0 01-.823-.083 10.431 10.431 0 01-1.193-.368 5.214 5.214 0 01-1.062-.535 1.977 1.977 0 01-.657-.641l-.19.499c-.358.997-.728 2.018-1.086 3.052a59.492 59.492 0 01-1.194 3.123 30.427 30.427 0 01-1.456 3.004 15.614 15.614 0 01-1.837 2.672.706.706 0 01-.656.202 1.338 1.338 0 01-.752-.451 2.8 2.8 0 01-.573-1.022 3.548 3.548 0 01-.107-1.448 24.216 24.216 0 012.04-7.007 80.244 80.244 0 013.687-7.184c.144-.273.31-.546.478-.82.157-.266.328-.523.513-.771l.382-1.152zm8.042-1.128a5.588 5.588 0 00-3.472 1.33c-.987.833-1.85 1.8-2.566 2.873a176.63 176.63 0 00-.43 1.746c-.142.558-.297 1.188-.477 1.734l.263-.13a11.558 11.558 0 002.076-1.188 16.095 16.095 0 002.196-1.77 9.614 9.614 0 001.754-2.197c.443-.72.67-1.553.656-2.398zm8.998 7.825a10.22 10.22 0 003.222-.64 18.591 18.591 0 003.066-1.461 25.777 25.777 0 002.816-1.948c.895-.712 1.707-1.378 2.387-2.019a.73.73 0 01.549-.225c.143 0 .12.213-.096.546a6.581 6.581 0 00-.751 1.805 2.37 2.37 0 01-.43 1.092 13.73 13.73 0 01-.978 1.057c-.44.43-.91.828-1.409 1.188-.525.404-1.085.795-1.658 1.187a8.732 8.732 0 01-1.73.867 9.125 9.125 0 01-1.635.51 9.38 9.38 0 01-1.814.25 3.978 3.978 0 01-1.384-.309 6.17 6.17 0 01-1.504-.867c-.44-.35-.84-.749-1.193-1.187a2.169 2.169 0 01-.56-1.188 11.983 11.983 0 01.274-4.203c.316-1.251.81-2.45 1.467-3.563a10.2 10.2 0 012.387-2.767 10.14 10.14 0 013.15-1.745 2.062 2.062 0 011.277 0c.488.156.953.376 1.384.653.406.263.772.583 1.086.95.25.267.4.61.43.974a2.617 2.617 0 01-.31 1.187c-.237.48-.504.944-.8 1.39-.31.475-.668.973-1.038 1.484l-1.074 1.449c-.334.427-.573.57-.728.45-.155-.118-.131-.439 0-.95.12-.332.203-.593.25-.783a2.37 2.37 0 00.072-.522 1.184 1.184 0 00-.072-.428 3.928 3.928 0 01-.119-.475 1.76 1.76 0 01.072-.689 7.04 7.04 0 01.298-.76c.12-.273.239-.558.358-.867.124-.306.216-.625.275-.95a6.322 6.322 0 00-2.387 1.699 12.395 12.395 0 00-1.957 2.885c-.557 1.1-.959 2.27-1.193 3.48a8.086 8.086 0 000 3.443zm13.364-8.312a22.71 22.71 0 012.47-2.102 5.764 5.764 0 011.957-.95 2.54 2.54 0 011.66.13 5.08 5.08 0 011.586 1.188l.692-1.033a.68.68 0 01.74-.226 2.4 2.4 0 011.002.404c.298.19.547.446.728.748a.604.604 0 010 .748c-.3.416-.572.853-.811 1.307a23.224 23.224 0 00-1.193 2.375c-.382.89-.836 1.769-1.194 2.648a10.743 10.743 0 00-.716 2.125.425.425 0 000 .226v.273c.62-.354 1.214-.75 1.778-1.187a59.228 59.228 0 001.945-1.461l1.802-1.425 1.289-1.045a2.99 2.99 0 01.644-.38c.175-.078.355-.145.537-.202l.597-.214c.257-.096.502-.224.728-.38.179-.118.31-.154.382-.106.071.047 0 .166-.108.38-1.193 1.567-2.386 3.087-3.77 4.571-.37.392-.776.843-1.194 1.354-.454.506-.95.975-1.48 1.401a6.599 6.599 0 01-1.658.974 2.686 2.686 0 01-1.778.071 3.393 3.393 0 01-2.136-1.187 2.554 2.554 0 01-.227-1.948 29.405 29.405 0 01-1.814 2.375 6.972 6.972 0 01-1.765 1.58c-2.065 1.187-3.58.795-4.642-1.306a3.985 3.985 0 01-.358-1.651 6.183 6.183 0 01.382-2.292 12.51 12.51 0 011.3-2.696 17.171 17.171 0 012.625-3.099v.012zm.633 7.422a57.86 57.86 0 003.389-4.026 91.789 91.789 0 003.066-4.299 2.395 2.395 0 00-1.455.38c-.597.355-1.167.752-1.707 1.188-.56.44-1.074.867-1.54 1.294a8.531 8.531 0 00-.93.903c-.374.427-.772.962-1.193 1.603A25.463 25.463 0 0076.753 23a12.89 12.89 0 00-.978 1.947 1.833 1.833 0 00-.18 1.354c.18.273.466.202.884-.202l1.957-2.161zm34.128-4.477c.159-.087.327-.159.501-.214l.477-.13.585-.202c.226-.095.513-.226.847-.404.334-.178.62-.333.68-.25.06.084 0 .274-.37.606a38.37 38.37 0 01-2.172 2.446 36.23 36.23 0 01-2.637 2.447 24.756 24.756 0 01-2.685 1.995 6.098 6.098 0 01-2.315.973 5.332 5.332 0 01-2.863-.344 3.578 3.578 0 01-1.862-1.437 4.102 4.102 0 01-.513-1.84c-.06-.708-.06-1.419 0-2.126a1.509 1.509 0 011.038-1.27c.462-.21.912-.445 1.349-.701.511-.307.997-.653 1.455-1.034.458-.408.877-.857 1.253-1.341.39-.417.687-.91.871-1.45a7.887 7.887 0 00-2.685 1.45 21.088 21.088 0 00-2.314 2.054 31.456 31.456 0 00-2.113 2.375 84.56 84.56 0 00-1.98 2.553 44.502 44.502 0 00-1.54 2.173 19.681 19.681 0 01-.823 1.188 1.356 1.356 0 01-.93.653 2.614 2.614 0 01-2.113-.57.535.535 0 01-.179-.677l4.272-7.683a30.598 30.598 0 01-2.59 2.209 26.543 26.543 0 01-2.863 1.9c-.37.237-.728.463-1.098.653-.37.19-.644.344-.835.44-.191.094-.299.094-.299 0 0-.096.167-.274.501-.606.6-.583 1.155-1.21 1.66-1.877.33-.436.6-.915.799-1.425a3.302 3.302 0 011.11-1.472l2.386-2.15a74.488 74.488 0 002.935-2.909 29.007 29.007 0 002.972-3.776c.572-1.188 1.193-2.375 1.658-3.646.466-1.27.991-2.47 1.48-3.657.083-.214.262-.285.537-.226.32.08.612.245.847.475.3.268.558.58.764.926.243.346.349.769.298 1.188-.03.494-.131.982-.298 1.448a8.841 8.841 0 01-.585 1.378 7.421 7.421 0 01-.704 1.187c-.239.321-.441.57-.597.749-.262.605-.501 1.187-.704 1.567-.202.38-.393.843-.608 1.188-.215.344-.43.807-.633 1.187-.202.38-.477.926-.775 1.496.732-.453 1.498-.85 2.291-1.187a6.231 6.231 0 012.613-.404c.328.018.646.111.931.273a4.38 4.38 0 011.05.7c.314.282.576.616.776.986.19.34.245.738.155 1.117a6.265 6.265 0 01-.824 1.757 9.783 9.783 0 01-1.384 1.698 10.59 10.59 0 01-1.754 1.318 10.25 10.25 0 01-1.861.998c-.065.474.045.955.31 1.354.274.451.489.82.644 1.092a7.268 7.268 0 002.255-.89 34.736 34.736 0 002.459-1.604 66.373 66.373 0 002.195-1.626 10.1 10.1 0 011.552-1.081v.012zm7.588-.998a13.92 13.92 0 01-1.193 1.485c-.491.51-1.013.99-1.563 1.437a13.48 13.48 0 01-1.646 1.187c-.462.31-.97.546-1.504.7 0 .334.024.668.072.998.031.293.133.575.298.82a.97.97 0 00.955.534c.417-.04.823-.16 1.193-.356.766-.39 1.5-.838 2.195-1.342a26.532 26.532 0 002.208-1.734 47.899 47.899 0 002.112-1.971 91.05 91.05 0 001.885-1.924c.239-.237.418-.32.525-.25.107.072.096.226 0 .44a18.54 18.54 0 00-.752 1.936c-.167.546-.31.997-.429 1.365-.124.36-.301.7-.525 1.01-.33.498-.692.974-1.086 1.425-.472.55-.982 1.065-1.528 1.544a8.745 8.745 0 01-1.885 1.282 6.295 6.295 0 01-2.171.653 4.917 4.917 0 01-2.387-.309c-1-.325-1.848-1-2.386-1.9a5.807 5.807 0 01-.752-2.755 8.978 8.978 0 01.453-3.063c.299-.98.699-1.928 1.194-2.827.253-.456.54-.892.859-1.306.368-.491.766-.96 1.193-1.401.402-.433.841-.83 1.313-1.188.379-.294.826-.49 1.3-.57.554-.005 1.1.13 1.587.392.512.22.987.517 1.408.879.314.318.493.742.501 1.188a2.79 2.79 0 01-.203 1.27c-.176.413-.388.81-.632 1.188l-.609 1.163zm-4.999 1.568a18.59 18.59 0 002.017-2.304 11.706 11.706 0 001.527-2.72 4.13 4.13 0 00-.847.773c-.286.33-.55.679-.788 1.045-.25.356-.477.712-.68 1.056-.203.345-.382.63-.501.844l-.728 1.306zm25.213-1.188c.49-.356.764-.51.824-.427.059.083-.108.332-.501.784a75.422 75.422 0 01-2.268 2.624 47.224 47.224 0 01-2.386 2.47 26.082 26.082 0 01-2.387 2.054 9.78 9.78 0 01-2.386 1.354 3.426 3.426 0 01-1.217 1.582 3.448 3.448 0 01-1.898.639 5.022 5.022 0 01-2.028-.356 5.44 5.44 0 01-1.862-1.188 3.96 3.96 0 01-.453-.594 2.71 2.71 0 01-.334-.76 1.756 1.756 0 01-.072-.772.95.95 0 01.406-.641.91.91 0 01.572-.202h.812c.286 0 .561 0 .823.095l.609.107h1.193c.372.003.744-.025 1.11-.083.095-.453.144-.915.143-1.378v-3.74c0-.831-.119-1.663-.203-2.506a44.156 44.156 0 01-3.472 3.349 105.007 105.007 0 01-3.389 2.802c-.43.333-.621.38-.597.155.072-.306.215-.591.418-.831.209-.275.389-.57.537-.88.15-.304.281-.617.394-.937l.286-.808c.073-.211.2-.4.37-.546.394-.392 1.05-1.188 1.981-2.209a30.979 30.979 0 002.971-4.393.549.549 0 01.585-.274c.292.04.574.141.823.297.275.168.526.367.752.594.179.145.311.34.382.558.274 1.603.525 3.254.751 4.976.225 1.68.264 3.38.12 5.07a9.198 9.198 0 001.79-1.187c.62-.499 1.193-1.01 1.814-1.52.62-.51 1.193-.998 1.706-1.449a7.484 7.484 0 011.503-.997 14.4 14.4 0 01.907-.357 2.92 2.92 0 00.871-.463v-.012z"/></g><defs><clipPath id="da"><path d="M0 0h142v38H0z"/></clipPath></defs></svg><svg viewBox="0 0 148 38" id="partner-5" xmlns="http://www.w3.org/2000/svg"><path d="M34.052 30.614a21.271 21.271 0 01-7.086 5.307 21.371 21.371 0 01-8.645 1.972C7.316 37.893 0 30.875 0 19.356c0-11.875 8.975-19 15.779-19a9.65 9.65 0 014.43.822 9.603 9.603 0 013.567 2.74l1.193-2.885h8.152V15.64h-9.25c-.155-3.348-1.814-6.495-5.502-6.495-3.688 0-6.17 4.595-6.17 10.212 0 5.118 2.649 9.714 7.578 9.714 4.357 0 7.782-4.548 8.247-5.059l6.028 6.603zM52.958.986v6.816h-3.223v7.79h9.859v-7.79h-3.056V.986h16.865v6.816H70.42v22.456h2.984v6.816H56.538v-6.816h3.056v-7.802h-9.859v7.802h3.223v6.816h-16.83v-6.816h2.865V7.802H36.13V.986h16.829zM75.48 18.798C75.48 7.695 82.964 0 93.705 0c12.724 0 18.644 7.588 18.644 19.202S105.796 38 94.064 38c-10.85 0-18.584-6.246-18.584-19.154v-.048zm23.871.356c0-6.246-1.707-11.245-5.705-11.245-3.175 0-5.347 4.489-5.347 10.89 0 6.768 2.387 11.043 5.753 11.043 3.365 0 5.31-4.228 5.31-10.64l-.011-.048zM148 30.614a21.275 21.275 0 01-7.086 5.307 21.374 21.374 0 01-8.645 1.972c-11.004 0-18.321-7.018-18.321-18.537 0-11.875 8.976-19 15.779-19a9.647 9.647 0 014.43.822 9.602 9.602 0 013.567 2.74l1.193-2.885h8.152V15.64h-9.298c-.155-3.348-1.814-6.495-5.502-6.495-3.688 0-6.171 4.595-6.171 10.212 0 5.118 2.65 9.714 7.579 9.714 4.357 0 7.782-4.548 8.248-5.059L148 30.614z"/></svg></svg>